<svg xmlns="http://www.w3.org/2000/svg" viewBox="0 0 65.26 51.35"><defs><style>.cls-1{fill:#fecd07}.cls-2,.cls-7{fill:none}.cls-3{fill:#fff}.cls-4{fill:#deb306}.cls-5{fill:#333}.cls-6{fill:#bf9a05}.cls-7{stroke:#fff;stroke-linecap:round;stroke-linejoin:round;stroke-width:2px}.cls-8{fill:#957552}.cls-9{fill:#c69c6d}</style></defs><g id="Layer_2" data-name="Layer 2"><g id="Layer_1-2" data-name="Layer 1"><path d="M24.75,0H3.58V36H39.73V30.38ZM37.58,32.43H22.77V27.19l-2.51-1.87H5.5V2.13H23.13L37.58,31.19Z"/><rect width="36.16" height="9.59" x="3.58" y="35.99" class="cls-1"/><polygon points="37.58 31.19 37.58 32.43 22.77 32.43 22.77 27.19 20.26 25.32 5.5 25.32 5.5 2.13 23.13 2.13 37.58 31.19" class="cls-2"/><polygon points="37.58 31.19 37.58 32.43 22.77 32.43 22.77 27.19 20.26 25.32 5.5 25.32 5.5 2.13 23.13 2.13 37.58 31.19" class="cls-2"/><polygon points="65.26 42.13 53.1 45.58 40.95 45.58 40.95 0 44.39 0 44.39 42.13 65.26 42.13"/><circle cx="8.09" cy="44.16" r="6.63"/><path d="M8.09,38.08A6.08,6.08,0,1,1,2,44.16a6.08,6.08,0,0,1,6.08-6.08m0-1.11a7.19,7.19,0,1,0,7.19,7.19A7.2,7.2,0,0,0,8.09,37Z" class="cls-3"/><circle cx="30.82" cy="44.16" r="6.63"/><path d="M30.82,38.08a6.08,6.08,0,1,1-6.07,6.08,6.08,6.08,0,0,1,6.07-6.08m0-1.11A7.19,7.19,0,1,0,38,44.16,7.2,7.2,0,0,0,30.82,37Z" class="cls-3"/><circle cx="30.82" cy="44.16" r="2.48" class="cls-3"/><path d="M30.82,41.89a2.27,2.27,0,1,1-2.27,2.27,2.27,2.27,0,0,1,2.27-2.27m0-.42a2.69,2.69,0,1,0,2.69,2.69,2.69,2.69,0,0,0-2.69-2.69Z" class="cls-3"/><circle cx="8.14" cy="44.16" r="2.48" class="cls-3"/><path d="M8.14,41.89a2.27,2.27,0,1,1-2.27,2.27,2.26,2.26,0,0,1,2.27-2.27m0-.42a2.69,2.69,0,1,0,2.68,2.69,2.7,2.7,0,0,0-2.68-2.69Z" class="cls-3"/><circle cx="3.41" cy="31.16" r="3.41"/><polygon points="9.45 24.1 8.14 12.56 9.71 12.56 11.63 20.86 18.52 21.32 18.52 24.1 9.45 24.1" class="cls-1"/><path d="M8.09,37c4.58,0,8.78,2,9.62,8.6H15.14C15.85,39.92,12.19,37.26,8.09,37Z" class="cls-4"/><path d="M30.82,37c-4.58,0-8.78,2-9.62,8.6h2.57C23.06,39.92,26.72,37.26,30.82,37Z" class="cls-4"/><polygon points="3.58 27.75 19.02 27.75 19.95 28.4 19.95 34.3 37.58 32.43 22.77 32.43 22.77 27.19 20.26 25.32 3.58 25.32 3.58 27.75" class="cls-5"/><path d="M33.3,39.25a5.84,5.84,0,0,1,2.34,7.46A8,8,0,0,0,33.3,39.25Z" class="cls-3"/><path d="M10.4,39.25a5.83,5.83,0,0,1,2.34,7.46A8,8,0,0,0,10.4,39.25Z" class="cls-3"/><polygon points="9.9 28.4 18.52 28.4 19.22 28.9 19.22 34.3 18.43 29.49 18.09 29.09 9.9 28.4" class="cls-3"/><polygon points="9.16 12.56 10.77 22.57 18.52 22.04 18.52 21.32 11.63 20.86 9.71 12.56 9.16 12.56" class="cls-6"/><line x1="35.44" x2="37.98" y1="35.14" y2="35.14" class="cls-7"/><line x1="25.38" x2="34.04" y1="35.14" y2="35.14" class="cls-7"/><polygon points="48.56 30.14 48.45 30.03 48.45 30.03 48.56 30.14" class="cls-8"/><polygon points="48.2 14.68 48.1 14.59 48.11 14.58 48.2 14.68" class="cls-8"/><rect width="15.66" height="15.66" x="45.95" y="25.45" class="cls-9"/><rect width="3.37" height="3.4" x="52.1" y="25.45" class="cls-8"/><rect width="3.37" height="3.4" x="52.1" y="37.71" class="cls-8"/><rect width="13.51" height="13.51" x="45.95" y="10.64" class="cls-9"/><rect width="2.9" height="2.93" x="51.25" y="10.64" class="cls-8"/><rect width="2.9" height="2.93" x="51.25" y="21.21" class="cls-8"/><rect width="8.85" height="8.85" x="45.95" y=".03" class="cls-9"/><rect width="1.9" height="1.92" x="49.42" y=".03" class="cls-8"/><rect width="1.9" height="1.92" x="49.42" y="6.96" class="cls-8"/></g></g></svg>